<mxfile host="app.diagrams.net" modified="2023-06-18T16:16:40.552Z" agent="Mozilla/5.0 (Windows NT 10.0; Win64; x64; rv:109.0) Gecko/20100101 Firefox/114.0" etag="9A-q5aSvEK37qrpgAUIP" version="21.3.6" type="google" pages="3">
  <diagram id="1ml3XRJJJd4D72CnJ9xQ" name="PÃ¡gina-2">
    <mxGraphModel dx="1222" dy="631" grid="1" gridSize="10" guides="1" tooltips="1" connect="1" arrows="1" fold="1" page="1" pageScale="1" pageWidth="3300" pageHeight="3300" math="0" shadow="0">
      <root>
        <mxCell id="0" />
        <mxCell id="1" parent="0" />
        <mxCell id="5S_NosqdIjiLRyP3VLlE-1" value="Persona" style="swimlane;fontStyle=1;align=center;verticalAlign=top;childLayout=stackLayout;horizontal=1;startSize=26;horizontalStack=0;resizeParent=1;resizeParentMax=0;resizeLast=0;collapsible=1;marginBottom=0;whiteSpace=wrap;html=1;" vertex="1" parent="1">
          <mxGeometry x="320" y="80" width="160" height="118" as="geometry" />
        </mxCell>
        <mxCell id="5S_NosqdIjiLRyP3VLlE-2" value="&lt;div&gt;- date : nacimiento&lt;/div&gt;&lt;div&gt;- string : nombre&lt;/div&gt;&lt;div&gt;- string : apellidos&lt;br&gt;&lt;/div&gt;&lt;div&gt;&lt;br&gt;&lt;/div&gt;" style="text;strokeColor=none;fillColor=none;align=left;verticalAlign=top;spacingLeft=4;spacingRight=4;overflow=hidden;rotatable=0;points=[[0,0.5],[1,0.5]];portConstraint=eastwest;whiteSpace=wrap;html=1;" vertex="1" parent="5S_NosqdIjiLRyP3VLlE-1">
          <mxGeometry y="26" width="160" height="54" as="geometry" />
        </mxCell>
        <mxCell id="5S_NosqdIjiLRyP3VLlE-3" value="" style="line;strokeWidth=1;fillColor=none;align=left;verticalAlign=middle;spacingTop=-1;spacingLeft=3;spacingRight=3;rotatable=0;labelPosition=right;points=[];portConstraint=eastwest;strokeColor=inherit;" vertex="1" parent="5S_NosqdIjiLRyP3VLlE-1">
          <mxGeometry y="80" width="160" height="38" as="geometry" />
        </mxCell>
        <mxCell id="5S_NosqdIjiLRyP3VLlE-28" style="edgeStyle=orthogonalEdgeStyle;rounded=0;orthogonalLoop=1;jettySize=auto;html=1;entryX=1;entryY=0.114;entryDx=0;entryDy=0;entryPerimeter=0;" edge="1" parent="1" source="5S_NosqdIjiLRyP3VLlE-5" target="5S_NosqdIjiLRyP3VLlE-18">
          <mxGeometry relative="1" as="geometry" />
        </mxCell>
        <mxCell id="5S_NosqdIjiLRyP3VLlE-5" value="AlumnoCS" style="swimlane;fontStyle=1;align=center;verticalAlign=top;childLayout=stackLayout;horizontal=1;startSize=26;horizontalStack=0;resizeParent=1;resizeParentMax=0;resizeLast=0;collapsible=1;marginBottom=0;whiteSpace=wrap;html=1;" vertex="1" parent="1">
          <mxGeometry x="920" y="430" width="160" height="98" as="geometry" />
        </mxCell>
        <mxCell id="5S_NosqdIjiLRyP3VLlE-6" value="&lt;div&gt;+ int : curso&lt;/div&gt;&lt;div&gt;+ string : grado&lt;/div&gt;&lt;div&gt;+ string : modalidad&lt;br&gt;&lt;/div&gt;" style="text;strokeColor=none;fillColor=none;align=left;verticalAlign=top;spacingLeft=4;spacingRight=4;overflow=hidden;rotatable=0;points=[[0,0.5],[1,0.5]];portConstraint=eastwest;whiteSpace=wrap;html=1;" vertex="1" parent="5S_NosqdIjiLRyP3VLlE-5">
          <mxGeometry y="26" width="160" height="64" as="geometry" />
        </mxCell>
        <mxCell id="5S_NosqdIjiLRyP3VLlE-7" value="" style="line;strokeWidth=1;fillColor=none;align=left;verticalAlign=middle;spacingTop=-1;spacingLeft=3;spacingRight=3;rotatable=0;labelPosition=right;points=[];portConstraint=eastwest;strokeColor=inherit;" vertex="1" parent="5S_NosqdIjiLRyP3VLlE-5">
          <mxGeometry y="90" width="160" height="8" as="geometry" />
        </mxCell>
        <mxCell id="5S_NosqdIjiLRyP3VLlE-31" style="edgeStyle=orthogonalEdgeStyle;rounded=0;orthogonalLoop=1;jettySize=auto;html=1;exitX=0.5;exitY=0;exitDx=0;exitDy=0;" edge="1" parent="1" source="5S_NosqdIjiLRyP3VLlE-9">
          <mxGeometry relative="1" as="geometry">
            <mxPoint x="400" y="190" as="targetPoint" />
          </mxGeometry>
        </mxCell>
        <mxCell id="5S_NosqdIjiLRyP3VLlE-9" value="Profesor" style="swimlane;fontStyle=1;align=center;verticalAlign=top;childLayout=stackLayout;horizontal=1;startSize=26;horizontalStack=0;resizeParent=1;resizeParentMax=0;resizeLast=0;collapsible=1;marginBottom=0;whiteSpace=wrap;html=1;" vertex="1" parent="1">
          <mxGeometry x="190" y="290" width="160" height="88" as="geometry" />
        </mxCell>
        <mxCell id="5S_NosqdIjiLRyP3VLlE-10" value="&lt;div&gt;- Persona: Persona&lt;/div&gt;&lt;div&gt;- string: asignatura&lt;br&gt;&lt;/div&gt;" style="text;strokeColor=none;fillColor=none;align=left;verticalAlign=top;spacingLeft=4;spacingRight=4;overflow=hidden;rotatable=0;points=[[0,0.5],[1,0.5]];portConstraint=eastwest;whiteSpace=wrap;html=1;" vertex="1" parent="5S_NosqdIjiLRyP3VLlE-9">
          <mxGeometry y="26" width="160" height="54" as="geometry" />
        </mxCell>
        <mxCell id="5S_NosqdIjiLRyP3VLlE-11" value="" style="line;strokeWidth=1;fillColor=none;align=left;verticalAlign=middle;spacingTop=-1;spacingLeft=3;spacingRight=3;rotatable=0;labelPosition=right;points=[];portConstraint=eastwest;strokeColor=inherit;" vertex="1" parent="5S_NosqdIjiLRyP3VLlE-9">
          <mxGeometry y="80" width="160" height="8" as="geometry" />
        </mxCell>
        <mxCell id="5S_NosqdIjiLRyP3VLlE-13" value="&lt;div&gt;Curso&lt;/div&gt;&lt;div&gt;&lt;br&gt;&lt;/div&gt;" style="swimlane;fontStyle=1;align=center;verticalAlign=top;childLayout=stackLayout;horizontal=1;startSize=26;horizontalStack=0;resizeParent=1;resizeParentMax=0;resizeLast=0;collapsible=1;marginBottom=0;whiteSpace=wrap;html=1;" vertex="1" parent="1">
          <mxGeometry x="320" y="470" width="160" height="140" as="geometry" />
        </mxCell>
        <mxCell id="5S_NosqdIjiLRyP3VLlE-14" value="&lt;div&gt;- int : contadorAlumnos&lt;/div&gt;&lt;div&gt;- int : contadorProfesores&lt;br&gt;&lt;/div&gt;" style="text;strokeColor=none;fillColor=none;align=left;verticalAlign=top;spacingLeft=4;spacingRight=4;overflow=hidden;rotatable=0;points=[[0,0.5],[1,0.5]];portConstraint=eastwest;whiteSpace=wrap;html=1;" vertex="1" parent="5S_NosqdIjiLRyP3VLlE-13">
          <mxGeometry y="26" width="160" height="54" as="geometry" />
        </mxCell>
        <mxCell id="5S_NosqdIjiLRyP3VLlE-15" value="" style="line;strokeWidth=1;fillColor=none;align=left;verticalAlign=middle;spacingTop=-1;spacingLeft=3;spacingRight=3;rotatable=0;labelPosition=right;points=[];portConstraint=eastwest;strokeColor=inherit;" vertex="1" parent="5S_NosqdIjiLRyP3VLlE-13">
          <mxGeometry y="80" width="160" height="8" as="geometry" />
        </mxCell>
        <mxCell id="5S_NosqdIjiLRyP3VLlE-16" value="&lt;div&gt;+ matricular ();&lt;/div&gt;&lt;div&gt;+ desmatricular ();&lt;br&gt;&lt;/div&gt;" style="text;strokeColor=none;fillColor=none;align=left;verticalAlign=top;spacingLeft=4;spacingRight=4;overflow=hidden;rotatable=0;points=[[0,0.5],[1,0.5]];portConstraint=eastwest;whiteSpace=wrap;html=1;" vertex="1" parent="5S_NosqdIjiLRyP3VLlE-13">
          <mxGeometry y="88" width="160" height="52" as="geometry" />
        </mxCell>
        <mxCell id="5S_NosqdIjiLRyP3VLlE-32" style="edgeStyle=orthogonalEdgeStyle;rounded=0;orthogonalLoop=1;jettySize=auto;html=1;" edge="1" parent="1" source="5S_NosqdIjiLRyP3VLlE-17">
          <mxGeometry relative="1" as="geometry">
            <mxPoint x="400" y="200" as="targetPoint" />
          </mxGeometry>
        </mxCell>
        <mxCell id="5S_NosqdIjiLRyP3VLlE-17" value="&lt;div&gt;Alumno&lt;/div&gt;&lt;div&gt;&lt;br&gt;&lt;/div&gt;" style="swimlane;fontStyle=1;align=center;verticalAlign=top;childLayout=stackLayout;horizontal=1;startSize=26;horizontalStack=0;resizeParent=1;resizeParentMax=0;resizeLast=0;collapsible=1;marginBottom=0;whiteSpace=wrap;html=1;" vertex="1" parent="1">
          <mxGeometry x="470" y="288" width="160" height="100" as="geometry" />
        </mxCell>
        <mxCell id="5S_NosqdIjiLRyP3VLlE-18" value="&lt;div&gt;- Persona : Persona&lt;/div&gt;&lt;div&gt;- int : nota&lt;br&gt;&lt;/div&gt;" style="text;strokeColor=none;fillColor=none;align=left;verticalAlign=top;spacingLeft=4;spacingRight=4;overflow=hidden;rotatable=0;points=[[0,0.5],[1,0.5]];portConstraint=eastwest;whiteSpace=wrap;html=1;" vertex="1" parent="5S_NosqdIjiLRyP3VLlE-17">
          <mxGeometry y="26" width="160" height="44" as="geometry" />
        </mxCell>
        <mxCell id="5S_NosqdIjiLRyP3VLlE-19" value="" style="line;strokeWidth=1;fillColor=none;align=left;verticalAlign=middle;spacingTop=-1;spacingLeft=3;spacingRight=3;rotatable=0;labelPosition=right;points=[];portConstraint=eastwest;strokeColor=inherit;" vertex="1" parent="5S_NosqdIjiLRyP3VLlE-17">
          <mxGeometry y="70" width="160" height="30" as="geometry" />
        </mxCell>
        <mxCell id="5S_NosqdIjiLRyP3VLlE-27" style="edgeStyle=orthogonalEdgeStyle;rounded=0;orthogonalLoop=1;jettySize=auto;html=1;exitX=0.5;exitY=0;exitDx=0;exitDy=0;entryX=1;entryY=0.5;entryDx=0;entryDy=0;" edge="1" parent="1" source="5S_NosqdIjiLRyP3VLlE-21" target="5S_NosqdIjiLRyP3VLlE-18">
          <mxGeometry relative="1" as="geometry">
            <mxPoint x="630" y="361" as="targetPoint" />
            <Array as="points">
              <mxPoint x="760" y="340" />
              <mxPoint x="631" y="340" />
            </Array>
          </mxGeometry>
        </mxCell>
        <mxCell id="5S_NosqdIjiLRyP3VLlE-21" value="AlumnoFPB" style="swimlane;fontStyle=1;align=center;verticalAlign=top;childLayout=stackLayout;horizontal=1;startSize=26;horizontalStack=0;resizeParent=1;resizeParentMax=0;resizeLast=0;collapsible=1;marginBottom=0;whiteSpace=wrap;html=1;" vertex="1" parent="1">
          <mxGeometry x="680" y="430" width="160" height="100" as="geometry" />
        </mxCell>
        <mxCell id="5S_NosqdIjiLRyP3VLlE-22" value="&lt;div&gt;+ string : nombrePadre&lt;/div&gt;&lt;div&gt;+ string : nombreMadre&lt;br&gt;&lt;/div&gt;" style="text;strokeColor=none;fillColor=none;align=left;verticalAlign=top;spacingLeft=4;spacingRight=4;overflow=hidden;rotatable=0;points=[[0,0.5],[1,0.5]];portConstraint=eastwest;whiteSpace=wrap;html=1;" vertex="1" parent="5S_NosqdIjiLRyP3VLlE-21">
          <mxGeometry y="26" width="160" height="44" as="geometry" />
        </mxCell>
        <mxCell id="5S_NosqdIjiLRyP3VLlE-23" value="" style="line;strokeWidth=1;fillColor=none;align=left;verticalAlign=middle;spacingTop=-1;spacingLeft=3;spacingRight=3;rotatable=0;labelPosition=right;points=[];portConstraint=eastwest;strokeColor=inherit;" vertex="1" parent="5S_NosqdIjiLRyP3VLlE-21">
          <mxGeometry y="70" width="160" height="30" as="geometry" />
        </mxCell>
        <mxCell id="5S_NosqdIjiLRyP3VLlE-29" style="edgeStyle=orthogonalEdgeStyle;rounded=0;orthogonalLoop=1;jettySize=auto;html=1;entryX=0.425;entryY=1;entryDx=0;entryDy=0;entryPerimeter=0;" edge="1" parent="1" source="5S_NosqdIjiLRyP3VLlE-14" target="5S_NosqdIjiLRyP3VLlE-11">
          <mxGeometry relative="1" as="geometry">
            <mxPoint x="250.96000000000004" y="376.98800000000006" as="targetPoint" />
          </mxGeometry>
        </mxCell>
        <mxCell id="5S_NosqdIjiLRyP3VLlE-30" style="edgeStyle=orthogonalEdgeStyle;rounded=0;orthogonalLoop=1;jettySize=auto;html=1;exitX=1;exitY=0.5;exitDx=0;exitDy=0;" edge="1" parent="1" source="5S_NosqdIjiLRyP3VLlE-14">
          <mxGeometry relative="1" as="geometry">
            <mxPoint x="550" y="380" as="targetPoint" />
          </mxGeometry>
        </mxCell>
      </root>
    </mxGraphModel>
  </diagram>
  <diagram id="ImmVkoMkNmLXMLd7SNJt" name="PÃ¡gina-3">
    <mxGraphModel grid="1" page="1" gridSize="10" guides="1" tooltips="1" connect="1" arrows="1" fold="1" pageScale="1" pageWidth="3300" pageHeight="3300" math="0" shadow="0">
      <root>
        <mxCell id="0" />
        <mxCell id="1" parent="0" />
        <mxCell id="MO4zvFPmLbAxu_IJ-C10-19" style="edgeStyle=orthogonalEdgeStyle;rounded=0;orthogonalLoop=1;jettySize=auto;html=1;exitX=0.5;exitY=0;exitDx=0;exitDy=0;" edge="1" parent="1" source="MO4zvFPmLbAxu_IJ-C10-1">
          <mxGeometry relative="1" as="geometry">
            <mxPoint x="520" y="180" as="targetPoint" />
          </mxGeometry>
        </mxCell>
        <mxCell id="MO4zvFPmLbAxu_IJ-C10-1" value="JugadorAvanzado" style="swimlane;fontStyle=1;align=center;verticalAlign=top;childLayout=stackLayout;horizontal=1;startSize=26;horizontalStack=0;resizeParent=1;resizeParentMax=0;resizeLast=0;collapsible=1;marginBottom=0;whiteSpace=wrap;html=1;" vertex="1" parent="1">
          <mxGeometry x="560" y="300" width="160" height="86" as="geometry" />
        </mxCell>
        <mxCell id="MO4zvFPmLbAxu_IJ-C10-2" value="- vehiculo : vehiculo" style="text;strokeColor=none;fillColor=none;align=left;verticalAlign=top;spacingLeft=4;spacingRight=4;overflow=hidden;rotatable=0;points=[[0,0.5],[1,0.5]];portConstraint=eastwest;whiteSpace=wrap;html=1;" vertex="1" parent="MO4zvFPmLbAxu_IJ-C10-1">
          <mxGeometry y="26" width="160" height="26" as="geometry" />
        </mxCell>
        <mxCell id="MO4zvFPmLbAxu_IJ-C10-3" value="" style="line;strokeWidth=1;fillColor=none;align=left;verticalAlign=middle;spacingTop=-1;spacingLeft=3;spacingRight=3;rotatable=0;labelPosition=right;points=[];portConstraint=eastwest;strokeColor=inherit;" vertex="1" parent="MO4zvFPmLbAxu_IJ-C10-1">
          <mxGeometry y="52" width="160" height="8" as="geometry" />
        </mxCell>
        <mxCell id="MO4zvFPmLbAxu_IJ-C10-4" value="+ conducir ();" style="text;strokeColor=none;fillColor=none;align=left;verticalAlign=top;spacingLeft=4;spacingRight=4;overflow=hidden;rotatable=0;points=[[0,0.5],[1,0.5]];portConstraint=eastwest;whiteSpace=wrap;html=1;" vertex="1" parent="MO4zvFPmLbAxu_IJ-C10-1">
          <mxGeometry y="60" width="160" height="26" as="geometry" />
        </mxCell>
        <mxCell id="MO4zvFPmLbAxu_IJ-C10-18" style="edgeStyle=orthogonalEdgeStyle;rounded=0;orthogonalLoop=1;jettySize=auto;html=1;exitX=0.5;exitY=0;exitDx=0;exitDy=0;" edge="1" parent="1" source="MO4zvFPmLbAxu_IJ-C10-5">
          <mxGeometry relative="1" as="geometry">
            <mxPoint x="520" y="190" as="targetPoint" />
          </mxGeometry>
        </mxCell>
        <mxCell id="MO4zvFPmLbAxu_IJ-C10-5" value="JugadorPrincipal" style="swimlane;fontStyle=1;align=center;verticalAlign=top;childLayout=stackLayout;horizontal=1;startSize=26;horizontalStack=0;resizeParent=1;resizeParentMax=0;resizeLast=0;collapsible=1;marginBottom=0;whiteSpace=wrap;html=1;" vertex="1" parent="1">
          <mxGeometry x="350" y="313" width="160" height="60" as="geometry" />
        </mxCell>
        <mxCell id="MO4zvFPmLbAxu_IJ-C10-6" value="+ Jugador : Jugador" style="text;strokeColor=none;fillColor=none;align=left;verticalAlign=top;spacingLeft=4;spacingRight=4;overflow=hidden;rotatable=0;points=[[0,0.5],[1,0.5]];portConstraint=eastwest;whiteSpace=wrap;html=1;" vertex="1" parent="MO4zvFPmLbAxu_IJ-C10-5">
          <mxGeometry y="26" width="160" height="26" as="geometry" />
        </mxCell>
        <mxCell id="MO4zvFPmLbAxu_IJ-C10-7" value="" style="line;strokeWidth=1;fillColor=none;align=left;verticalAlign=middle;spacingTop=-1;spacingLeft=3;spacingRight=3;rotatable=0;labelPosition=right;points=[];portConstraint=eastwest;strokeColor=inherit;" vertex="1" parent="MO4zvFPmLbAxu_IJ-C10-5">
          <mxGeometry y="52" width="160" height="8" as="geometry" />
        </mxCell>
        <mxCell id="MO4zvFPmLbAxu_IJ-C10-20" style="edgeStyle=orthogonalEdgeStyle;rounded=0;orthogonalLoop=1;jettySize=auto;html=1;exitX=0;exitY=0.5;exitDx=0;exitDy=0;entryX=1;entryY=0.5;entryDx=0;entryDy=0;" edge="1" parent="1" source="MO4zvFPmLbAxu_IJ-C10-9" target="MO4zvFPmLbAxu_IJ-C10-2">
          <mxGeometry relative="1" as="geometry" />
        </mxCell>
        <mxCell id="MO4zvFPmLbAxu_IJ-C10-9" value="Vehiculo" style="swimlane;fontStyle=1;align=center;verticalAlign=top;childLayout=stackLayout;horizontal=1;startSize=26;horizontalStack=0;resizeParent=1;resizeParentMax=0;resizeLast=0;collapsible=1;marginBottom=0;whiteSpace=wrap;html=1;" vertex="1" parent="1">
          <mxGeometry x="800" y="246" width="160" height="140" as="geometry" />
        </mxCell>
        <mxCell id="MO4zvFPmLbAxu_IJ-C10-10" value="&lt;div&gt;- int : velocidad&lt;/div&gt;&lt;div&gt;- int : velocidadMaxima&lt;br&gt;&lt;/div&gt;" style="text;strokeColor=none;fillColor=none;align=left;verticalAlign=top;spacingLeft=4;spacingRight=4;overflow=hidden;rotatable=0;points=[[0,0.5],[1,0.5]];portConstraint=eastwest;whiteSpace=wrap;html=1;" vertex="1" parent="MO4zvFPmLbAxu_IJ-C10-9">
          <mxGeometry y="26" width="160" height="44" as="geometry" />
        </mxCell>
        <mxCell id="MO4zvFPmLbAxu_IJ-C10-11" value="" style="line;strokeWidth=1;fillColor=none;align=left;verticalAlign=middle;spacingTop=-1;spacingLeft=3;spacingRight=3;rotatable=0;labelPosition=right;points=[];portConstraint=eastwest;strokeColor=inherit;" vertex="1" parent="MO4zvFPmLbAxu_IJ-C10-9">
          <mxGeometry y="70" width="160" height="8" as="geometry" />
        </mxCell>
        <mxCell id="MO4zvFPmLbAxu_IJ-C10-12" value="&lt;div&gt;+ int : getVelocidad ();&lt;/div&gt;&lt;div&gt;+ setVelocidad ();&lt;br&gt;&lt;/div&gt;" style="text;strokeColor=none;fillColor=none;align=left;verticalAlign=top;spacingLeft=4;spacingRight=4;overflow=hidden;rotatable=0;points=[[0,0.5],[1,0.5]];portConstraint=eastwest;whiteSpace=wrap;html=1;" vertex="1" parent="MO4zvFPmLbAxu_IJ-C10-9">
          <mxGeometry y="78" width="160" height="62" as="geometry" />
        </mxCell>
        <mxCell id="MO4zvFPmLbAxu_IJ-C10-13" value="Jugador" style="swimlane;fontStyle=1;align=center;verticalAlign=top;childLayout=stackLayout;horizontal=1;startSize=26;horizontalStack=0;resizeParent=1;resizeParentMax=0;resizeLast=0;collapsible=1;marginBottom=0;whiteSpace=wrap;html=1;" vertex="1" parent="1">
          <mxGeometry x="450" y="40" width="160" height="144" as="geometry" />
        </mxCell>
        <mxCell id="MO4zvFPmLbAxu_IJ-C10-14" value="&lt;div&gt;- string : nombre&lt;/div&gt;&lt;div&gt;- int : vidas&lt;/div&gt;&lt;div&gt;- int : x&lt;/div&gt;&lt;div&gt;- int : y&lt;br&gt;&lt;/div&gt;" style="text;strokeColor=none;fillColor=none;align=left;verticalAlign=top;spacingLeft=4;spacingRight=4;overflow=hidden;rotatable=0;points=[[0,0.5],[1,0.5]];portConstraint=eastwest;whiteSpace=wrap;html=1;" vertex="1" parent="MO4zvFPmLbAxu_IJ-C10-13">
          <mxGeometry y="26" width="160" height="84" as="geometry" />
        </mxCell>
        <mxCell id="MO4zvFPmLbAxu_IJ-C10-15" value="" style="line;strokeWidth=1;fillColor=none;align=left;verticalAlign=middle;spacingTop=-1;spacingLeft=3;spacingRight=3;rotatable=0;labelPosition=right;points=[];portConstraint=eastwest;strokeColor=inherit;" vertex="1" parent="MO4zvFPmLbAxu_IJ-C10-13">
          <mxGeometry y="110" width="160" height="8" as="geometry" />
        </mxCell>
        <mxCell id="MO4zvFPmLbAxu_IJ-C10-16" value="+ andar ();" style="text;strokeColor=none;fillColor=none;align=left;verticalAlign=top;spacingLeft=4;spacingRight=4;overflow=hidden;rotatable=0;points=[[0,0.5],[1,0.5]];portConstraint=eastwest;whiteSpace=wrap;html=1;" vertex="1" parent="MO4zvFPmLbAxu_IJ-C10-13">
          <mxGeometry y="118" width="160" height="26" as="geometry" />
        </mxCell>
      </root>
    </mxGraphModel>
  </diagram>
  <diagram id="Lj5oqpsrNmI6-njhT8wV" name="PÃ¡gina-4">
    <mxGraphModel grid="1" page="1" gridSize="10" guides="1" tooltips="1" connect="1" arrows="1" fold="1" pageScale="1" pageWidth="3300" pageHeight="3300" math="0" shadow="0">
      <root>
        <mxCell id="0" />
        <mxCell id="1" parent="0" />
        <mxCell id="KrM2YCP9w7IEDr-wkzH0-38" style="edgeStyle=orthogonalEdgeStyle;rounded=0;orthogonalLoop=1;jettySize=auto;html=1;entryX=0.988;entryY=0.769;entryDx=0;entryDy=0;entryPerimeter=0;" edge="1" parent="1" source="KrM2YCP9w7IEDr-wkzH0-1" target="KrM2YCP9w7IEDr-wkzH0-10">
          <mxGeometry relative="1" as="geometry" />
        </mxCell>
        <mxCell id="KrM2YCP9w7IEDr-wkzH0-1" value="GPS" style="swimlane;fontStyle=1;align=center;verticalAlign=top;childLayout=stackLayout;horizontal=1;startSize=26;horizontalStack=0;resizeParent=1;resizeParentMax=0;resizeLast=0;collapsible=1;marginBottom=0;whiteSpace=wrap;html=1;" vertex="1" parent="1">
          <mxGeometry x="610" y="40" width="180" height="60" as="geometry" />
        </mxCell>
        <mxCell id="KrM2YCP9w7IEDr-wkzH0-2" value="+ Instrumento : Instrumento" style="text;strokeColor=none;fillColor=none;align=left;verticalAlign=top;spacingLeft=4;spacingRight=4;overflow=hidden;rotatable=0;points=[[0,0.5],[1,0.5]];portConstraint=eastwest;whiteSpace=wrap;html=1;" vertex="1" parent="KrM2YCP9w7IEDr-wkzH0-1">
          <mxGeometry y="26" width="180" height="26" as="geometry" />
        </mxCell>
        <mxCell id="KrM2YCP9w7IEDr-wkzH0-3" value="" style="line;strokeWidth=1;fillColor=none;align=left;verticalAlign=middle;spacingTop=-1;spacingLeft=3;spacingRight=3;rotatable=0;labelPosition=right;points=[];portConstraint=eastwest;strokeColor=inherit;" vertex="1" parent="KrM2YCP9w7IEDr-wkzH0-1">
          <mxGeometry y="52" width="180" height="8" as="geometry" />
        </mxCell>
        <mxCell id="KrM2YCP9w7IEDr-wkzH0-39" style="edgeStyle=orthogonalEdgeStyle;rounded=0;orthogonalLoop=1;jettySize=auto;html=1;entryX=1.013;entryY=0.808;entryDx=0;entryDy=0;entryPerimeter=0;" edge="1" parent="1" source="KrM2YCP9w7IEDr-wkzH0-5" target="KrM2YCP9w7IEDr-wkzH0-10">
          <mxGeometry relative="1" as="geometry" />
        </mxCell>
        <mxCell id="KrM2YCP9w7IEDr-wkzH0-5" value="Brujula" style="swimlane;fontStyle=1;align=center;verticalAlign=top;childLayout=stackLayout;horizontal=1;startSize=26;horizontalStack=0;resizeParent=1;resizeParentMax=0;resizeLast=0;collapsible=1;marginBottom=0;whiteSpace=wrap;html=1;" vertex="1" parent="1">
          <mxGeometry x="810" y="40" width="180" height="60" as="geometry" />
        </mxCell>
        <mxCell id="KrM2YCP9w7IEDr-wkzH0-6" value="+ Instrumento : Instrumento" style="text;strokeColor=none;fillColor=none;align=left;verticalAlign=top;spacingLeft=4;spacingRight=4;overflow=hidden;rotatable=0;points=[[0,0.5],[1,0.5]];portConstraint=eastwest;whiteSpace=wrap;html=1;" vertex="1" parent="KrM2YCP9w7IEDr-wkzH0-5">
          <mxGeometry y="26" width="180" height="26" as="geometry" />
        </mxCell>
        <mxCell id="KrM2YCP9w7IEDr-wkzH0-7" value="" style="line;strokeWidth=1;fillColor=none;align=left;verticalAlign=middle;spacingTop=-1;spacingLeft=3;spacingRight=3;rotatable=0;labelPosition=right;points=[];portConstraint=eastwest;strokeColor=inherit;" vertex="1" parent="KrM2YCP9w7IEDr-wkzH0-5">
          <mxGeometry y="52" width="180" height="8" as="geometry" />
        </mxCell>
        <mxCell id="KrM2YCP9w7IEDr-wkzH0-42" style="edgeStyle=orthogonalEdgeStyle;rounded=0;orthogonalLoop=1;jettySize=auto;html=1;entryX=0.5;entryY=0;entryDx=0;entryDy=0;" edge="1" parent="1" source="KrM2YCP9w7IEDr-wkzH0-9" target="KrM2YCP9w7IEDr-wkzH0-17">
          <mxGeometry relative="1" as="geometry" />
        </mxCell>
        <mxCell id="KrM2YCP9w7IEDr-wkzH0-9" value="Instrumento" style="swimlane;fontStyle=1;align=center;verticalAlign=top;childLayout=stackLayout;horizontal=1;startSize=26;horizontalStack=0;resizeParent=1;resizeParentMax=0;resizeLast=0;collapsible=1;marginBottom=0;whiteSpace=wrap;html=1;" vertex="1" parent="1">
          <mxGeometry x="420" y="180" width="160" height="120" as="geometry" />
        </mxCell>
        <mxCell id="KrM2YCP9w7IEDr-wkzH0-10" value="+ Instrumento : Suscriptor" style="text;strokeColor=none;fillColor=none;align=left;verticalAlign=top;spacingLeft=4;spacingRight=4;overflow=hidden;rotatable=0;points=[[0,0.5],[1,0.5]];portConstraint=eastwest;whiteSpace=wrap;html=1;" vertex="1" parent="KrM2YCP9w7IEDr-wkzH0-9">
          <mxGeometry y="26" width="160" height="26" as="geometry" />
        </mxCell>
        <mxCell id="KrM2YCP9w7IEDr-wkzH0-11" value="" style="line;strokeWidth=1;fillColor=none;align=left;verticalAlign=middle;spacingTop=-1;spacingLeft=3;spacingRight=3;rotatable=0;labelPosition=right;points=[];portConstraint=eastwest;strokeColor=inherit;" vertex="1" parent="KrM2YCP9w7IEDr-wkzH0-9">
          <mxGeometry y="52" width="160" height="8" as="geometry" />
        </mxCell>
        <mxCell id="KrM2YCP9w7IEDr-wkzH0-12" value="&lt;div&gt;+ activar ();&lt;/div&gt;&lt;div&gt;+ desactivar&amp;nbsp; ();&lt;/div&gt;&lt;div&gt;+ visualizar ();&lt;br&gt;&lt;/div&gt;" style="text;strokeColor=none;fillColor=none;align=left;verticalAlign=top;spacingLeft=4;spacingRight=4;overflow=hidden;rotatable=0;points=[[0,0.5],[1,0.5]];portConstraint=eastwest;whiteSpace=wrap;html=1;" vertex="1" parent="KrM2YCP9w7IEDr-wkzH0-9">
          <mxGeometry y="60" width="160" height="60" as="geometry" />
        </mxCell>
        <mxCell id="KrM2YCP9w7IEDr-wkzH0-40" style="edgeStyle=orthogonalEdgeStyle;rounded=0;orthogonalLoop=1;jettySize=auto;html=1;entryX=1.006;entryY=0.846;entryDx=0;entryDy=0;entryPerimeter=0;" edge="1" parent="1" source="KrM2YCP9w7IEDr-wkzH0-13" target="KrM2YCP9w7IEDr-wkzH0-10">
          <mxGeometry relative="1" as="geometry" />
        </mxCell>
        <mxCell id="KrM2YCP9w7IEDr-wkzH0-13" value="&lt;div&gt;Velocimetro&lt;/div&gt;&lt;div&gt;&lt;br&gt;&lt;/div&gt;" style="swimlane;fontStyle=1;align=center;verticalAlign=top;childLayout=stackLayout;horizontal=1;startSize=26;horizontalStack=0;resizeParent=1;resizeParentMax=0;resizeLast=0;collapsible=1;marginBottom=0;whiteSpace=wrap;html=1;" vertex="1" parent="1">
          <mxGeometry x="1010" y="40" width="180" height="60" as="geometry" />
        </mxCell>
        <mxCell id="KrM2YCP9w7IEDr-wkzH0-14" value="+ Instrumento : Instrumento" style="text;strokeColor=none;fillColor=none;align=left;verticalAlign=top;spacingLeft=4;spacingRight=4;overflow=hidden;rotatable=0;points=[[0,0.5],[1,0.5]];portConstraint=eastwest;whiteSpace=wrap;html=1;" vertex="1" parent="KrM2YCP9w7IEDr-wkzH0-13">
          <mxGeometry y="26" width="180" height="26" as="geometry" />
        </mxCell>
        <mxCell id="KrM2YCP9w7IEDr-wkzH0-15" value="" style="line;strokeWidth=1;fillColor=none;align=left;verticalAlign=middle;spacingTop=-1;spacingLeft=3;spacingRight=3;rotatable=0;labelPosition=right;points=[];portConstraint=eastwest;strokeColor=inherit;" vertex="1" parent="KrM2YCP9w7IEDr-wkzH0-13">
          <mxGeometry y="52" width="180" height="8" as="geometry" />
        </mxCell>
        <mxCell id="KrM2YCP9w7IEDr-wkzH0-17" value="Suscriptor" style="swimlane;fontStyle=1;align=center;verticalAlign=top;childLayout=stackLayout;horizontal=1;startSize=26;horizontalStack=0;resizeParent=1;resizeParentMax=0;resizeLast=0;collapsible=1;marginBottom=0;whiteSpace=wrap;html=1;" vertex="1" parent="1">
          <mxGeometry x="420" y="320" width="160" height="60" as="geometry" />
        </mxCell>
        <mxCell id="KrM2YCP9w7IEDr-wkzH0-19" value="" style="line;strokeWidth=1;fillColor=none;align=left;verticalAlign=middle;spacingTop=-1;spacingLeft=3;spacingRight=3;rotatable=0;labelPosition=right;points=[];portConstraint=eastwest;strokeColor=inherit;" vertex="1" parent="KrM2YCP9w7IEDr-wkzH0-17">
          <mxGeometry y="26" width="160" height="8" as="geometry" />
        </mxCell>
        <mxCell id="KrM2YCP9w7IEDr-wkzH0-20" value="+ actualizar ();" style="text;strokeColor=none;fillColor=none;align=left;verticalAlign=top;spacingLeft=4;spacingRight=4;overflow=hidden;rotatable=0;points=[[0,0.5],[1,0.5]];portConstraint=eastwest;whiteSpace=wrap;html=1;" vertex="1" parent="KrM2YCP9w7IEDr-wkzH0-17">
          <mxGeometry y="34" width="160" height="26" as="geometry" />
        </mxCell>
        <mxCell id="KrM2YCP9w7IEDr-wkzH0-41" style="edgeStyle=orthogonalEdgeStyle;rounded=0;orthogonalLoop=1;jettySize=auto;html=1;entryX=0;entryY=0.5;entryDx=0;entryDy=0;" edge="1" parent="1" source="KrM2YCP9w7IEDr-wkzH0-21" target="KrM2YCP9w7IEDr-wkzH0-10">
          <mxGeometry relative="1" as="geometry" />
        </mxCell>
        <mxCell id="KrM2YCP9w7IEDr-wkzH0-21" value="PanelInstrumento" style="swimlane;fontStyle=1;align=center;verticalAlign=top;childLayout=stackLayout;horizontal=1;startSize=26;horizontalStack=0;resizeParent=1;resizeParentMax=0;resizeLast=0;collapsible=1;marginBottom=0;whiteSpace=wrap;html=1;" vertex="1" parent="1">
          <mxGeometry x="420" width="160" height="90" as="geometry" />
        </mxCell>
        <mxCell id="KrM2YCP9w7IEDr-wkzH0-23" value="" style="line;strokeWidth=1;fillColor=none;align=left;verticalAlign=middle;spacingTop=-1;spacingLeft=3;spacingRight=3;rotatable=0;labelPosition=right;points=[];portConstraint=eastwest;strokeColor=inherit;" vertex="1" parent="KrM2YCP9w7IEDr-wkzH0-21">
          <mxGeometry y="26" width="160" height="8" as="geometry" />
        </mxCell>
        <mxCell id="KrM2YCP9w7IEDr-wkzH0-24" value="&lt;div&gt;+ activar ();&lt;/div&gt;&lt;div&gt;+ desactivar ();&lt;/div&gt;&lt;div&gt;+ visualizar ();&lt;br&gt;&lt;/div&gt;" style="text;strokeColor=none;fillColor=none;align=left;verticalAlign=top;spacingLeft=4;spacingRight=4;overflow=hidden;rotatable=0;points=[[0,0.5],[1,0.5]];portConstraint=eastwest;whiteSpace=wrap;html=1;" vertex="1" parent="KrM2YCP9w7IEDr-wkzH0-21">
          <mxGeometry y="34" width="160" height="56" as="geometry" />
        </mxCell>
        <mxCell id="KrM2YCP9w7IEDr-wkzH0-25" value="&lt;div&gt;CuerpoSolido&lt;/div&gt;&lt;div&gt;&lt;br&gt;&lt;/div&gt;" style="swimlane;fontStyle=1;align=center;verticalAlign=top;childLayout=stackLayout;horizontal=1;startSize=26;horizontalStack=0;resizeParent=1;resizeParentMax=0;resizeLast=0;collapsible=1;marginBottom=0;whiteSpace=wrap;html=1;" vertex="1" parent="1">
          <mxGeometry x="160" y="40" width="160" height="128" as="geometry" />
        </mxCell>
        <mxCell id="KrM2YCP9w7IEDr-wkzH0-26" value="&lt;div&gt;- string : Direccion&lt;/div&gt;&lt;div&gt;- string : Imagen&lt;br&gt;&lt;/div&gt;&lt;div&gt;- int : Posicion&lt;br&gt;&lt;/div&gt;&lt;div&gt;- int : Velocidad&lt;br&gt;&lt;/div&gt;" style="text;strokeColor=none;fillColor=none;align=left;verticalAlign=top;spacingLeft=4;spacingRight=4;overflow=hidden;rotatable=0;points=[[0,0.5],[1,0.5]];portConstraint=eastwest;whiteSpace=wrap;html=1;" vertex="1" parent="KrM2YCP9w7IEDr-wkzH0-25">
          <mxGeometry y="26" width="160" height="94" as="geometry" />
        </mxCell>
        <mxCell id="KrM2YCP9w7IEDr-wkzH0-27" value="" style="line;strokeWidth=1;fillColor=none;align=left;verticalAlign=middle;spacingTop=-1;spacingLeft=3;spacingRight=3;rotatable=0;labelPosition=right;points=[];portConstraint=eastwest;strokeColor=inherit;" vertex="1" parent="KrM2YCP9w7IEDr-wkzH0-25">
          <mxGeometry y="120" width="160" height="8" as="geometry" />
        </mxCell>
        <mxCell id="KrM2YCP9w7IEDr-wkzH0-44" style="edgeStyle=orthogonalEdgeStyle;rounded=0;orthogonalLoop=1;jettySize=auto;html=1;entryX=0.506;entryY=1;entryDx=0;entryDy=0;entryPerimeter=0;" edge="1" parent="1" source="KrM2YCP9w7IEDr-wkzH0-29" target="KrM2YCP9w7IEDr-wkzH0-36">
          <mxGeometry relative="1" as="geometry" />
        </mxCell>
        <mxCell id="KrM2YCP9w7IEDr-wkzH0-29" value="Publicador" style="swimlane;fontStyle=1;align=center;verticalAlign=top;childLayout=stackLayout;horizontal=1;startSize=26;horizontalStack=0;resizeParent=1;resizeParentMax=0;resizeLast=0;collapsible=1;marginBottom=0;whiteSpace=wrap;html=1;" vertex="1" parent="1">
          <mxGeometry x="150" y="470" width="160" height="150" as="geometry" />
        </mxCell>
        <mxCell id="KrM2YCP9w7IEDr-wkzH0-30" value="&lt;div&gt;+ Satelite : Publicador&lt;/div&gt;&lt;div&gt;+ Suscriptor : ListaSuscr&lt;br&gt;&lt;/div&gt;" style="text;strokeColor=none;fillColor=none;align=left;verticalAlign=top;spacingLeft=4;spacingRight=4;overflow=hidden;rotatable=0;points=[[0,0.5],[1,0.5]];portConstraint=eastwest;whiteSpace=wrap;html=1;" vertex="1" parent="KrM2YCP9w7IEDr-wkzH0-29">
          <mxGeometry y="26" width="160" height="44" as="geometry" />
        </mxCell>
        <mxCell id="KrM2YCP9w7IEDr-wkzH0-31" value="" style="line;strokeWidth=1;fillColor=none;align=left;verticalAlign=middle;spacingTop=-1;spacingLeft=3;spacingRight=3;rotatable=0;labelPosition=right;points=[];portConstraint=eastwest;strokeColor=inherit;" vertex="1" parent="KrM2YCP9w7IEDr-wkzH0-29">
          <mxGeometry y="70" width="160" height="8" as="geometry" />
        </mxCell>
        <mxCell id="KrM2YCP9w7IEDr-wkzH0-32" value="&lt;div&gt;+ darBaja ();&lt;/div&gt;&lt;div&gt;+ notificar ();&lt;/div&gt;&lt;div&gt;+ permitirSuscripcion ();&lt;br&gt;&lt;/div&gt;" style="text;strokeColor=none;fillColor=none;align=left;verticalAlign=top;spacingLeft=4;spacingRight=4;overflow=hidden;rotatable=0;points=[[0,0.5],[1,0.5]];portConstraint=eastwest;whiteSpace=wrap;html=1;" vertex="1" parent="KrM2YCP9w7IEDr-wkzH0-29">
          <mxGeometry y="78" width="160" height="72" as="geometry" />
        </mxCell>
        <mxCell id="KrM2YCP9w7IEDr-wkzH0-45" style="edgeStyle=orthogonalEdgeStyle;rounded=0;orthogonalLoop=1;jettySize=auto;html=1;entryX=0.469;entryY=1;entryDx=0;entryDy=0;entryPerimeter=0;" edge="1" parent="1" source="KrM2YCP9w7IEDr-wkzH0-33" target="KrM2YCP9w7IEDr-wkzH0-27">
          <mxGeometry relative="1" as="geometry">
            <mxPoint x="243.03999999999996" y="194" as="targetPoint" />
          </mxGeometry>
        </mxCell>
        <mxCell id="KrM2YCP9w7IEDr-wkzH0-33" value="Satelite" style="swimlane;fontStyle=1;align=center;verticalAlign=top;childLayout=stackLayout;horizontal=1;startSize=26;horizontalStack=0;resizeParent=1;resizeParentMax=0;resizeLast=0;collapsible=1;marginBottom=0;whiteSpace=wrap;html=1;" vertex="1" parent="1">
          <mxGeometry x="150" y="250" width="160" height="150" as="geometry" />
        </mxCell>
        <mxCell id="KrM2YCP9w7IEDr-wkzH0-34" value="+ CuerpoSolido : Satelite" style="text;strokeColor=none;fillColor=none;align=left;verticalAlign=top;spacingLeft=4;spacingRight=4;overflow=hidden;rotatable=0;points=[[0,0.5],[1,0.5]];portConstraint=eastwest;whiteSpace=wrap;html=1;" vertex="1" parent="KrM2YCP9w7IEDr-wkzH0-33">
          <mxGeometry y="26" width="160" height="26" as="geometry" />
        </mxCell>
        <mxCell id="KrM2YCP9w7IEDr-wkzH0-35" value="" style="line;strokeWidth=1;fillColor=none;align=left;verticalAlign=middle;spacingTop=-1;spacingLeft=3;spacingRight=3;rotatable=0;labelPosition=right;points=[];portConstraint=eastwest;strokeColor=inherit;" vertex="1" parent="KrM2YCP9w7IEDr-wkzH0-33">
          <mxGeometry y="52" width="160" height="8" as="geometry" />
        </mxCell>
        <mxCell id="KrM2YCP9w7IEDr-wkzH0-36" value="&lt;div&gt;+ apagar ();&lt;/div&gt;&lt;div&gt;+ aumentar ();&lt;/div&gt;&lt;div&gt;+ disminuir ();&lt;/div&gt;&lt;div&gt;+ girarDerecha ();&lt;/div&gt;&lt;div&gt;+ girarIzquierda ();&lt;br&gt;&lt;/div&gt;" style="text;strokeColor=none;fillColor=none;align=left;verticalAlign=top;spacingLeft=4;spacingRight=4;overflow=hidden;rotatable=0;points=[[0,0.5],[1,0.5]];portConstraint=eastwest;whiteSpace=wrap;html=1;" vertex="1" parent="KrM2YCP9w7IEDr-wkzH0-33">
          <mxGeometry y="60" width="160" height="90" as="geometry" />
        </mxCell>
        <mxCell id="KrM2YCP9w7IEDr-wkzH0-43" style="edgeStyle=orthogonalEdgeStyle;rounded=0;orthogonalLoop=1;jettySize=auto;html=1;exitX=0;exitY=0.5;exitDx=0;exitDy=0;entryX=1;entryY=0.5;entryDx=0;entryDy=0;" edge="1" parent="1" target="KrM2YCP9w7IEDr-wkzH0-30">
          <mxGeometry relative="1" as="geometry">
            <mxPoint x="420" y="359" as="sourcePoint" />
          </mxGeometry>
        </mxCell>
      </root>
    </mxGraphModel>
  </diagram>
</mxfile>
